<svg width="74" height="72" viewBox="0 0 74 72" fill="none" xmlns="http://www.w3.org/2000/svg">
<g id="Icon">
<path id="Oval" fill-rule="evenodd" clip-rule="evenodd" d="M37.2955 71.6434C57.5626 71.6434 73.9923 55.7495 73.9923 36.1434C73.9923 16.5373 57.5626 0.643433 37.2955 0.643433C17.0284 0.643433 0.598694 16.5373 0.598694 36.1434C0.598694 55.7495 17.0284 71.6434 37.2955 71.6434Z" fill="#F04037" fill-opacity="0.097195"/>
<g id="layout-11">
<path id="Path" d="M35.0743 38.716H25.6889C25.3435 38.716 25.0632 38.4323 25.0632 38.0827V22.8854C25.0632 22.5359 25.3435 22.2522 25.6889 22.2522H35.0743C35.4197 22.2522 35.7 22.5359 35.7 22.8854V38.0827C35.7 38.4323 35.4197 38.716 35.0743 38.716Z" fill="#F04037"/>
<path id="Path_2" d="M35.0743 51.0637H25.6889C25.3435 51.0637 25.0632 50.7674 25.0632 50.4022V42.4643C25.0632 42.0992 25.3435 41.8029 25.6889 41.8029H35.0743C35.4197 41.8029 35.7 42.0992 35.7 42.4643V50.4022C35.7 50.7674 35.4197 51.0637 35.0743 51.0637Z" fill="#F04037"/>
<path id="Path_3" d="M49.9658 31.5131H40.5804C40.235 31.5131 39.9547 31.2167 39.9547 30.8516V22.9137C39.9547 22.5485 40.235 22.2522 40.5804 22.2522H49.9658C50.3112 22.2522 50.5915 22.5485 50.5915 22.9137V30.8516C50.5915 31.2167 50.3112 31.5131 49.9658 31.5131Z" fill="#F04037"/>
<path id="Path_4" d="M49.9658 51.0637H40.5804C40.235 51.0637 39.9547 50.7801 39.9547 50.4305V35.2332C39.9547 34.8837 40.235 34.6 40.5804 34.6H49.9658C50.3112 34.6 50.5915 34.8837 50.5915 35.2332V50.4305C50.5915 50.7801 50.3112 51.0637 49.9658 51.0637Z" fill="#F04037"/>
</g>
</g>
</svg>
