<svg width="74" height="72" viewBox="0 0 74 72" fill="none" xmlns="http://www.w3.org/2000/svg">
<g id="Icon">
<path id="Oval" fill-rule="evenodd" clip-rule="evenodd" d="M36.8689 71.3511C57.136 71.3511 73.5657 55.4572 73.5657 35.8511C73.5657 16.245 57.136 0.351074 36.8689 0.351074C16.6018 0.351074 0.172058 16.245 0.172058 35.8511C0.172058 55.4572 16.6018 71.3511 36.8689 71.3511Z" fill="#FEDC5A" fill-opacity="0.1"/>
<g id="sidebar">
<path id="Path" d="M38.4644 50.7714H21.6158C20.3469 50.7714 19.3182 49.7531 19.3182 48.4968V24.2344C19.3182 22.9782 20.3469 21.9598 21.6158 21.9598H38.4644V23.4762H21.6158C21.1928 23.4762 20.8499 23.8157 20.8499 24.2344V48.4968C20.8499 48.9156 21.1928 49.255 21.6158 49.255H38.4644V50.7714Z" fill="#FEDC5A"/>
<path id="Shape" fill-rule="evenodd" clip-rule="evenodd" d="M40.5917 21.9598H53.1319C54.4305 21.9598 55.4832 22.9782 55.4832 24.2344V48.4968C55.4832 49.7531 54.4305 50.7714 53.1319 50.7714H40.5917V21.9598ZM45.2943 43.1894H50.7806C51.2135 43.1894 51.5644 42.8499 51.5644 42.4312C51.5644 42.0125 51.2135 41.673 50.7806 41.673H45.2943C44.8614 41.673 44.5105 42.0125 44.5105 42.4312C44.5105 42.8499 44.8614 43.1894 45.2943 43.1894ZM50.7806 37.1238H45.2943C44.8614 37.1238 44.5105 36.7843 44.5105 36.3656C44.5105 35.9468 44.8614 35.6074 45.2943 35.6074H50.7806C51.2135 35.6074 51.5644 35.9468 51.5644 36.3656C51.5644 36.7843 51.2135 37.1238 50.7806 37.1238ZM45.2943 31.0582H50.7806C51.2135 31.0582 51.5644 30.7188 51.5644 30.3C51.5644 29.8813 51.2135 29.5418 50.7806 29.5418H45.2943C44.8614 29.5418 44.5105 29.8813 44.5105 30.3C44.5105 30.7188 44.8614 31.0582 45.2943 31.0582Z" fill="#FEDC5A"/>
</g>
</g>
</svg>
