<svg width="75" height="72" viewBox="0 0 75 72" fill="none" xmlns="http://www.w3.org/2000/svg">
<g id="Icon">
<path id="Oval" fill-rule="evenodd" clip-rule="evenodd" d="M37.4796 71.5358C57.7467 71.5358 74.1764 55.6419 74.1764 36.0358C74.1764 16.4297 57.7467 0.535767 37.4796 0.535767C17.2125 0.535767 0.782791 16.4297 0.782791 36.0358C0.782791 55.6419 17.2125 71.5358 37.4796 71.5358Z" fill="#413E65" fill-opacity="0.1"/>
<g id="chat-content">
<path id="Shape" fill-rule="evenodd" clip-rule="evenodd" d="M50.4981 22.1445H25.5248C23.6092 22.1445 22.0563 23.6802 22.0563 25.5744V40.6661C22.0563 41.5757 22.4217 42.4481 23.0722 43.0914C23.7227 43.7346 24.6049 44.096 25.5248 44.096H32.1288L37.4703 50.6986C37.602 50.8614 37.8013 50.9561 38.0121 50.9561C38.2229 50.9561 38.4223 50.8614 38.5539 50.6986L43.894 44.096H50.4981C52.4137 44.096 53.9666 42.5604 53.9666 40.6661V25.5744C53.9666 23.6802 52.4137 22.1445 50.4981 22.1445ZM39.474 36.5503H30.1668C29.7997 36.5503 29.502 36.32 29.502 36.0358C29.502 35.7517 29.7997 35.5213 30.1668 35.5213H39.474C39.8412 35.5213 40.1388 35.7517 40.1388 36.0358C40.1388 36.32 39.8412 36.5503 39.474 36.5503ZM30.1975 30.3764H46.8891C47.2732 30.3764 47.5845 30.1461 47.5845 29.8619C47.5845 29.5778 47.2732 29.3474 46.8891 29.3474H30.1975C29.8134 29.3474 29.502 29.5778 29.502 29.8619C29.502 30.1461 29.8134 30.3764 30.1975 30.3764Z" fill="#413E65"/>
</g>
</g>
</svg>
