<svg width="74" height="72" viewBox="0 0 74 72" fill="none" xmlns="http://www.w3.org/2000/svg">
<g id="Icon">
<path id="Oval" fill-rule="evenodd" clip-rule="evenodd" d="M37.081 71.5204C57.3481 71.5204 73.7778 55.6265 73.7778 36.0204C73.7778 16.4143 57.3481 0.520386 37.081 0.520386C16.8139 0.520386 0.384155 16.4143 0.384155 36.0204C0.384155 55.6265 16.8139 71.5204 37.081 71.5204Z" fill="#5454D4" fill-opacity="0.1"/>
<g id="bookmark-2">
<path id="Path" d="M46.8313 21.1001H28.3943C26.4371 21.1023 24.851 22.6033 24.8487 24.4555V51.2985C24.8487 51.5393 24.9849 51.7616 25.2057 51.8811C25.4265 52.0006 25.6981 51.9991 25.9173 51.877L37.6128 45.3662L49.3083 51.8757C49.5273 51.9976 49.7986 51.9993 50.0193 51.8801C50.24 51.7609 50.3764 51.539 50.3769 51.2985V24.4555C50.3746 22.6033 48.7885 21.1023 46.8313 21.1001Z" fill="#5454D4"/>
</g>
</g>
</svg>
